<svg width="23" height="17" viewBox="0 0 23 17" fill="none" xmlns="http://www.w3.org/2000/svg">
<path d="M20.7 6.612C20.7001 6.64986 20.6928 6.68736 20.6783 6.72237C20.6639 6.75737 20.6427 6.78917 20.6159 6.81594C20.5892 6.84271 20.5574 6.86392 20.5224 6.87835C20.4874 6.89278 20.4498 6.90013 20.412 6.9H10.637C10.5991 6.90013 10.5616 6.89278 10.5266 6.87835C10.4916 6.86392 10.4598 6.84271 10.433 6.81594C10.4063 6.78917 10.3851 6.75737 10.3706 6.72237C10.3562 6.68736 10.3489 6.64986 10.349 6.612V6.038C10.349 5.878 10.478 5.75 10.637 5.75H20.412C20.571 5.75 20.699 5.879 20.699 6.037L20.7 6.612ZM20.7 10.062C20.7001 10.0999 20.6928 10.1374 20.6783 10.1724C20.6639 10.2074 20.6427 10.2392 20.6159 10.2659C20.5892 10.2927 20.5574 10.3139 20.5224 10.3283C20.4874 10.3428 20.4498 10.3501 20.412 10.35H17.537C17.4992 10.3501 17.4618 10.3428 17.4268 10.3284C17.3919 10.3141 17.3602 10.293 17.3334 10.2663C17.3066 10.2396 17.2854 10.208 17.2709 10.1731C17.2564 10.1382 17.249 10.1008 17.249 10.063V9.487C17.249 9.329 17.378 9.2 17.537 9.2H20.412C20.571 9.2 20.699 9.329 20.699 9.487L20.7 10.062ZM14.95 10.062C14.9501 10.0999 14.9428 10.1374 14.9283 10.1724C14.9139 10.2074 14.8927 10.2392 14.8659 10.2659C14.8392 10.2927 14.8074 10.3139 14.7724 10.3283C14.7374 10.3428 14.6998 10.3501 14.662 10.35H10.637C10.5992 10.3501 10.5618 10.3428 10.5269 10.3284C10.4919 10.3141 10.4602 10.293 10.4334 10.2663C10.4067 10.2396 10.3854 10.208 10.3709 10.1731C10.3565 10.1382 10.349 10.1008 10.349 10.063V9.487C10.349 9.329 10.478 9.2 10.637 9.2H14.662C14.821 9.2 14.949 9.329 14.949 9.487L14.95 10.062ZM6.32397 10.633V11.213C6.32397 11.2891 6.29375 11.3621 6.23993 11.4159C6.18611 11.4698 6.1131 11.5 6.03699 11.5H5.46198C5.4242 11.5001 5.38677 11.4928 5.35184 11.4784C5.3169 11.4641 5.28515 11.443 5.25839 11.4163C5.23164 11.3896 5.21041 11.3579 5.19592 11.3231C5.18144 11.2882 5.17398 11.2508 5.17398 11.213V10.627C4.76798 10.607 4.374 10.465 4.047 10.219C4.0144 10.1934 3.9877 10.1611 3.96872 10.1243C3.94974 10.0875 3.93894 10.047 3.93704 10.0056C3.93514 9.9642 3.94218 9.92289 3.9577 9.88448C3.97323 9.84606 3.99685 9.81144 4.02698 9.783L4.44897 9.38C4.54897 9.285 4.69599 9.28 4.81299 9.354C4.95199 9.441 5.10998 9.488 5.27298 9.488H6.28299C6.51699 9.488 6.70798 9.275 6.70798 9.013C6.70798 8.8 6.57797 8.611 6.39297 8.556L4.77499 8.071C4.10699 7.871 3.63998 7.229 3.63998 6.511C3.63998 5.631 4.32498 4.914 5.17398 4.891V4.313C5.17398 4.153 5.303 4.025 5.461 4.025H6.03598C6.19598 4.025 6.32397 4.154 6.32397 4.313V4.898C6.72997 4.918 7.12399 5.06 7.45099 5.306C7.59099 5.411 7.59898 5.621 7.47098 5.742L7.04898 6.145C6.94898 6.24 6.802 6.245 6.685 6.171C6.5473 6.08411 6.38779 6.038 6.22498 6.038H5.215C4.981 6.038 4.78998 6.25 4.78998 6.512C4.78998 6.725 4.91999 6.914 5.10599 6.969L6.72299 7.454C7.39099 7.654 7.858 8.296 7.858 9.014C7.858 9.895 7.17297 10.611 6.32397 10.634V10.633ZM21.85 0H1.14999C0.844995 0 0.552489 0.121163 0.336823 0.33683C0.121156 0.552497 0 0.845003 0 1.15V14.95C0 15.585 0.514994 16.1 1.14999 16.1H21.85C22.155 16.1 22.4475 15.9788 22.6631 15.7632C22.8788 15.5475 23 15.255 23 14.95V1.15C23 0.845003 22.8788 0.552497 22.6631 0.33683C22.4475 0.121163 22.155 0 21.85 0V0Z" fill="#6E7375"/>
</svg>
