<svg width="23" height="20" viewBox="0 0 23 20" fill="none" xmlns="http://www.w3.org/2000/svg">
<path d="M11.357 7.453C10.3221 7.45459 9.33 7.86641 8.59821 8.59821C7.86641 9.33 7.45459 10.3221 7.453 11.357C7.45485 12.3917 7.8668 13.3836 8.59857 14.1151C9.33034 14.8467 10.3222 15.2584 11.357 15.26C12.3916 15.2582 13.3833 14.8463 14.1148 14.1148C14.8464 13.3832 15.2582 12.3916 15.26 11.357C15.2584 10.3223 14.8468 9.33033 14.1152 8.59857C13.3836 7.8668 12.3917 7.45485 11.357 7.453V7.453ZM11.357 16.68C9.94548 16.6789 8.59206 16.1178 7.59387 15.1198C6.59569 14.1218 6.03434 12.7685 6.03302 11.357C6.03408 9.94532 6.59529 8.59175 7.59351 7.59354C8.59172 6.59532 9.94531 6.03406 11.357 6.033C12.7685 6.03432 14.1218 6.5957 15.1198 7.59389C16.1178 8.59207 16.6789 9.94549 16.68 11.357C16.6787 12.7683 16.1174 14.1215 15.1194 15.1195C14.1215 16.1174 12.7683 16.6787 11.357 16.68V16.68ZM22.713 4.969C22.713 4.40409 22.4886 3.86231 22.0891 3.46286C21.6897 3.06341 21.1479 2.839 20.583 2.839H16.68L16.13 1.379C15.9779 0.973658 15.7056 0.624417 15.3497 0.377987C14.9937 0.131558 14.571 -0.000316275 14.138 5.69608e-07H8.57098C7.68298 5.69608e-07 6.88898 0.550002 6.57898 1.38L6.03302 2.84H2.12903C1.56464 2.84026 1.02339 3.06452 0.624207 3.46351C0.225028 3.8625 0.000529883 4.40361 0 4.968V17.744C0.000265135 18.3087 0.224783 18.8503 0.624207 19.2495C1.02363 19.6487 1.56527 19.873 2.13 19.873H20.584C21.1489 19.873 21.6907 19.6486 22.0901 19.2491C22.4896 18.8497 22.714 18.3079 22.714 17.743V4.97L22.713 4.969Z" fill="#6E7375"/>
</svg>
