<svg width="20" height="20" viewBox="0 0 20 20" fill="none" xmlns="http://www.w3.org/2000/svg">
<path d="M19.8101 12.63C20.0051 12.78 20.0571 13.05 19.9331 13.27L17.8771 16.73C17.7541 16.95 17.4771 17.03 17.2501 16.95L14.6901 15.94C14.1561 16.34 13.6001 16.67 12.9531 16.93L12.5731 19.58C12.5505 19.6995 12.4864 19.8071 12.3922 19.884C12.298 19.9608 12.1796 20.0019 12.0581 20H7.94607C7.82468 20.0017 7.70659 19.9605 7.61258 19.8837C7.51857 19.8068 7.45464 19.6993 7.43207 19.58L7.05206 16.93C6.40406 16.68 5.84906 16.34 5.31406 15.94L2.75406 16.95C2.64023 16.9915 2.51556 16.9922 2.40124 16.9521C2.28693 16.912 2.19004 16.8335 2.12707 16.73L0.0710745 13.27C0.00830774 13.1671 -0.0137813 13.0444 0.00915435 12.926C0.03209 12.8077 0.0983912 12.7021 0.195067 12.63L2.36407 10.97C2.31928 10.6486 2.29521 10.3246 2.29205 10C2.29205 9.67005 2.32207 9.34005 2.36407 9.00005L0.19406 7.37005C0.0975474 7.29784 0.0314455 7.19222 0.00869659 7.07385C-0.0140523 6.95548 0.00820301 6.83289 0.0710745 6.73005L2.12707 3.27005C2.25107 3.05005 2.52806 2.96005 2.75406 3.05005L5.31406 4.05005C5.84906 3.66005 6.40406 3.32005 7.05206 3.07005L7.43207 0.420048C7.45464 0.300758 7.51857 0.19325 7.61258 0.11643C7.70659 0.0396109 7.82468 -0.00159944 7.94607 4.75199e-05H12.0581C12.3151 4.75199e-05 12.5311 0.180048 12.5721 0.420048L12.9521 3.07005C13.6001 3.32005 14.1561 3.66005 14.6901 4.05005L17.2501 3.05005C17.4761 2.96005 17.7541 3.05005 17.8771 3.27005L19.9331 6.73005C20.0571 6.95005 20.0051 7.22005 19.8101 7.37005L17.6401 9.00005C17.6821 9.34005 17.7131 9.67005 17.7131 10C17.7131 10.33 17.6821 10.65 17.6411 10.97L19.8101 12.63ZM13.6001 10C13.6001 8.06705 11.9901 6.50005 10.0021 6.50005C8.01507 6.50005 6.40405 8.06705 6.40405 10C6.40405 11.933 8.01507 13.5 10.0021 13.5L13.6001 10Z" fill="#6E7375"/>
</svg>
