<svg xmlns="http://www.w3.org/2000/svg" width="32.907" height="30.222" viewBox="0 0 32.907 30.222">
  <g id="Сгруппировать_2386" data-name="Сгруппировать 2386" transform="translate(-993.654 -214)">
    <path id="serving-dish" d="M31.5,15.445H30.361A13.8,13.8,0,0,0,29.1,10.456a.481.481,0,1,0-.873.405,12.842,12.842,0,0,1,1.17,4.584H7.346a.481.481,0,1,0,0,.963H31.5a.442.442,0,0,1,.441.442v.587a.442.442,0,0,1-.441.442H1.4a.442.442,0,0,1-.441-.442v-.587a.442.442,0,0,1,.441-.442H5.1a.481.481,0,1,0,0-.963H3.512A12.971,12.971,0,0,1,15.588,3.376h.005q.2-.013.389-.02l.077,0,.136,0c.086,0,.173,0,.259,0,.115,0,.23,0,.345.005l.1,0c.088,0,.177.008.265.012l.14.008a12.981,12.981,0,0,1,9.85,5.61.481.481,0,0,0,.794-.545,13.945,13.945,0,0,0-9.522-5.915A2.344,2.344,0,0,0,18.8,1.255c0-.262-.117-.744-.9-1.032a4.825,4.825,0,0,0-2.9,0c-.782.288-.9.77-.9,1.032a2.347,2.347,0,0,0,.373,1.268A13.938,13.938,0,0,0,2.547,15.445H1.4a1.406,1.406,0,0,0-1.4,1.4v.587a1.406,1.406,0,0,0,1.4,1.4H6.59a5.965,5.965,0,0,0-.739.6l-.01.009a.437.437,0,0,0-.042.044L3.515,22.267a1.327,1.327,0,0,0-1.812.376L.8,23.968a1.332,1.332,0,0,0,.353,1.846l6.15,4.178a1.321,1.321,0,0,0,.744.23,1.351,1.351,0,0,0,.253-.024,1.32,1.32,0,0,0,.85-.56l.9-1.325A1.332,1.332,0,0,0,9.7,26.467l-.035-.024a3.112,3.112,0,0,1,1.62-.978,10.579,10.579,0,0,1,3.892.065,9.2,9.2,0,0,0,3.924-.211l1.773-.49A9.125,9.125,0,0,0,24.1,23.2l.021-.018,3.043-2.7a1.485,1.485,0,0,0,.453-1.641H31.5a1.406,1.406,0,0,0,1.4-1.4v-.588a1.406,1.406,0,0,0-1.4-1.4ZM16.454.963a2.255,2.255,0,0,1,1.385.312,1.386,1.386,0,0,1-.613,1.131l-.281-.013-.094,0c-.134,0-.267-.006-.4-.006-.092,0-.186,0-.281,0l-.138,0-.165.006-.189.009a1.386,1.386,0,0,1-.613-1.13A2.255,2.255,0,0,1,16.454.963Zm3.452,18.11a1.587,1.587,0,0,0-.127-.232H24.4l-2,1.321-2.846.823-.1,0a1.638,1.638,0,0,0,.449-1.915Zm-5.22-.232-.695.145-.537-.145ZM9.257,27.773l-.9,1.325a.367.367,0,0,1-.51.1L1.7,25.018a.367.367,0,0,1-.1-.509l.9-1.326a.363.363,0,0,1,.234-.154.367.367,0,0,1,.07-.007.363.363,0,0,1,.205.064l.332.225h0L9.16,27.263a.367.367,0,0,1,.1.509Zm17.32-8.05a.422.422,0,0,0-.033.027l-3.046,2.7a8.169,8.169,0,0,1-2.88,1.453l-1.773.49a8.219,8.219,0,0,1-3.51.19,11.461,11.461,0,0,0-4.267-.053,4.089,4.089,0,0,0-2.2,1.372l-4.55-3.091,2.208-2.682a4.532,4.532,0,0,1,2.909-1.285h.02a3.629,3.629,0,0,1,1,.186l.212.058,3.187.86a.481.481,0,0,0,.224.006l4.175-.87a.718.718,0,0,1,.546.106.646.646,0,0,1,.229.274.674.674,0,0,1-.312.87l-1.424.754a.481.481,0,0,0,.236.907l2.113-.046a.485.485,0,0,0,.123-.019l2.977-.861a.482.482,0,0,0,.132-.061l3-1.988c.252-.156.587-.284.766-.02a.573.573,0,0,1-.062.725Zm0,0" transform="translate(993.654 214)" fill="#fff"/>
  </g>
</svg>
