<svg xmlns="http://www.w3.org/2000/svg" width="30.147" height="20.355" viewBox="0 0 30.147 20.355">
  <path id="delivery" d="M28.594,13.357a.834.834,0,0,0,.492-1.178q-.038-.074-.079-.146l-.025-.042c-.019-.033-.039-.066-.059-.1l-.035-.054c-.018-.028-.035-.056-.054-.083l-.041-.058-.053-.075-.045-.06-.053-.069-.049-.06-.053-.064-.052-.059-.054-.06-.055-.058-.055-.057-.059-.057-.056-.053-.061-.056-.057-.05-.064-.054-.058-.047-.066-.052-.059-.045-.069-.05-.06-.042-.071-.048-.062-.039-.073-.046-.062-.036-.076-.044-.063-.033-.079-.042-.063-.03-.081-.039-.061-.027-.086-.037-.03-.012c-.064-.026-.129-.051-.195-.074l-.072-.026-.077-.024-.078-.025-.076-.021L26.327,10l-.076-.018-.083-.02-.076-.015-.086-.017-.076-.013-.088-.014-.076-.01-.089-.011L25.6,9.88l-.091-.008-.076,0-.092,0-.076,0H25.1l-.094,0-.077,0h-.035l-.786-1.38a.429.429,0,0,0-.746.425l.752,1.321a8.6,8.6,0,0,0-2.772,6.034,3.335,3.335,0,0,1-.8.083H12.917v-.673a4.8,4.8,0,0,0-4.8-4.8H5.35a5.354,5.354,0,0,0-1.6.244A.429.429,0,0,0,4,11.941a4.5,4.5,0,0,1,1.345-.2H8.119a3.945,3.945,0,0,1,3.94,3.94v.673H.98a.122.122,0,0,1-.122-.122,4.491,4.491,0,0,1,1.555-3.4.429.429,0,0,0-.561-.649,5.339,5.339,0,0,0-.642.661A6.991,6.991,0,0,1,7.838,8.049h6.715l-.876,2.386a3.772,3.772,0,0,0,.413,3.4A3.628,3.628,0,0,0,17,15.455l.132,0h2.339a1.807,1.807,0,0,0,1.769-1.447c.8-2.963-.339-6.917-.958-8.711H21.3l1.05,1.845A.429.429,0,0,0,23.1,6.72L22.291,5.3H23.2a.76.76,0,0,0,.759-.759V2.525a.759.759,0,0,0-.944-.736L19.391,2.7l.1-.024-.14-.17a.47.47,0,0,0,.095-.134.478.478,0,0,0-.064-.5l-.906-1.1A.747.747,0,0,0,17.888.5l-1.88.019a.67.67,0,0,0-.667.669v.448a1.034,1.034,0,0,0,1.036,1.032l1.962-.014.435.529a.968.968,0,0,0-.116.461V4.4l-1.826.344a.435.435,0,0,0,.08.863.423.423,0,0,0,.081-.008l2.047-.385a.712.712,0,0,0,.333.083h0c.558,1.549,1.826,5.6,1.036,8.5,0,.01-.005.021-.007.032a.948.948,0,0,1-.929.768H17.136l-.1,0a2.778,2.778,0,0,1-2.23-1.245,2.873,2.873,0,0,1-.319-2.622l.962-2.621h.2a.473.473,0,0,0,.464-.568,4.213,4.213,0,0,0-.568-1.4,2.429,2.429,0,0,0-2.094-1.185H10.63a.72.72,0,0,0-.664.443A4.392,4.392,0,0,0,6.058,1.678V1.227a.429.429,0,0,0-.858,0v.45A4.39,4.39,0,0,0,1.25,5.854a.868.868,0,0,0-.76.86v.469a.868.868,0,0,0,.867.867H2.732V9.087A7.821,7.821,0,0,0,0,15.028v1.2a.981.981,0,0,0,.98.98H2.5a4.224,4.224,0,0,0,8.369,0h9.674a3.962,3.962,0,0,0,1.178-.161,4.225,4.225,0,1,0,6.875-3.691ZM22.344,2.843l.762-.192v1.79h-.762Zm-5.97-1.035a.175.175,0,0,1-.175-.174V1.373l1.645-.016.361.438Zm3.142,2.634v-.8a.112.112,0,0,1,.085-.109l1.885-.474V4.442Zm-8.747,2.74V5.817h2.676a1.853,1.853,0,0,1,1.667,1.374H10.769ZM3.59,8.445v-.4h.684a7.806,7.806,0,0,0-.684.4Zm2.039-5.93A3.53,3.53,0,0,1,9.15,5.846H2.109A3.53,3.53,0,0,1,5.629,2.515ZM1.356,7.191a.009.009,0,0,1-.009-.009V6.713A.009.009,0,0,1,1.356,6.7H9.9a.009.009,0,0,1,.009.009v.469a.009.009,0,0,1-.009.009ZM8.307,17.208a1.725,1.725,0,0,1-3.25,0ZM6.682,20a3.354,3.354,0,0,1-3.317-2.787h.8a2.583,2.583,0,0,0,5.035,0H10A3.354,3.354,0,0,1,6.682,20Zm15.651-4.551c-.015.039-.031.076-.049.112l0,.008-.01.019c-.015.03-.032.058-.049.086l-.01.015a8.294,8.294,0,0,1,2.625-4.955h0l.053,0,.086-.006.052,0,.086,0h.137l.055,0,.081,0,.056,0,.078.006.058.006.075.009.059.009.073.011.061.011.07.013.062.013.067.015.062.016.065.017.063.018.062.019.064.021.059.02.064.024.057.022.064.026.055.024.064.029.053.025.064.032.051.026.063.034.049.028.062.037.047.029.061.039.046.031.06.042.044.032.059.044.043.034.057.046.042.036.055.048.041.038.053.05.039.039.051.052.038.041.049.054.037.043.046.055.036.045.044.057.034.047.042.058.033.049.04.06.03.049.038.063.023.04c.014.024.028.049.041.074l-.118,0H28.14l-.078,0-.086,0-.043,0-.109.006-.026,0-.117.009-.022,0-.122.01-.022,0-.135.014h-.014l-.141.016h-.011l-.145.019h-.011l-.151.022H26.9l-.156.026h-.007l-.153.028-.013,0-.154.031-.014,0-.154.034-.017,0-.154.037-.019,0-.152.04-.023.006-.149.042-.027.008-.145.045-.032.01-.142.047-.036.012-.139.05-.039.014-.135.052L25,13.17l-.13.055-.048.02-.126.056-.052.024-.121.058-.056.027-.116.06-.06.032-.112.062-.063.036L24,13.663l-.066.04-.1.066-.068.044-.1.067-.071.049-.085.062-.04.029-.042.032-.047.037-.07.056-.046.037-.023.019q-.063.052-.126.107l-.009.008-.018.015a2.863,2.863,0,0,0-.76,1.112,0,0,0,0,1,0,0Zm4.674.388-.415-.795a1.724,1.724,0,1,1-2.339,1.155l.443.848a1.3,1.3,0,0,0,.766.64,1.311,1.311,0,0,0,.392.06,1.305,1.305,0,0,0,1.154-1.909Zm-.949,1a.446.446,0,0,1-.6-.189l-.823-1.574v0l-.308-.59q.088-.056.178-.109l.014-.008c.055-.032.112-.064.169-.095l.041-.022c.052-.027.1-.054.157-.08l.062-.03.115-.053.051-.023.315.6.009.018.811,1.552a.446.446,0,0,1-.189.6ZM25.923,20a3.37,3.37,0,0,1-3.367-3.367c0-.012,0-.023,0-.035a1.978,1.978,0,0,0,.253-.266l.015-.02q.044-.057.084-.117c.015-.022.029-.044.043-.067l.034-.057c.011-.02.022-.04.032-.06l.014-.026.02-.04.017-.036,0-.009.014-.029c.016-.037.032-.075.047-.113v0l.01-.024a2.053,2.053,0,0,1,.152-.307A2.017,2.017,0,0,1,23.631,15l.119.227a2.583,2.583,0,1,0,2.325-1.182l-.152-.291a8.371,8.371,0,0,1,1.22-.268,3.367,3.367,0,0,1-1.22,6.5Zm0,0" transform="translate(0 -0.498)" fill="#fff"/>
</svg>
