<svg xmlns="http://www.w3.org/2000/svg" width="30.563" height="19.837" viewBox="0 0 30.563 19.837">
  <g id="sport" transform="translate(0.001 -79.616)">
    <path id="Контур_645" data-name="Контур 645" d="M35.171,88a5.693,5.693,0,0,0-2.132.413L29.086,80.52h0a1.7,1.7,0,0,0-1.544-.9H26.288a.472.472,0,0,0,0,.943h1.259a.767.767,0,0,1,.7.383h0l1.709,3.414a9.006,9.006,0,0,0-2.865,3.713A9.856,9.856,0,0,1,24.4,91.585a2.005,2.005,0,0,0-.453,0l-2.156-8.149h.877a.472.472,0,1,0,0-.943H19.549a.472.472,0,0,0,0,.943h1.263l.979,3.7-1.651,1.942a5.724,5.724,0,1,0,2.3,5.638,2.035,2.035,0,0,0,3.743-1.108c0-.025,0-.049,0-.073a8.267,8.267,0,0,0,3.025-3.8A7.559,7.559,0,0,1,31.2,86.856l.991,1.98A5.723,5.723,0,1,0,35.171,88ZM16.807,98.509A4.783,4.783,0,1,1,19.528,89.8l-2.292,2.7a1.3,1.3,0,1,0,.719.61l2.291-2.695a4.779,4.779,0,0,1-3.439,8.1Zm5.6-5.958a5.721,5.721,0,0,0-1.551-2.865l1.225-1.442.965,3.65A2.051,2.051,0,0,0,22.411,92.552ZM24.152,94.7a1.093,1.093,0,1,1,1.093-1.093A1.094,1.094,0,0,1,24.152,94.7Zm4.2-5.37a7.836,7.836,0,0,1-2.443,3.259,2.05,2.05,0,0,0-.524-.6,11.592,11.592,0,0,0,2.539-3.5,8.618,8.618,0,0,1,2.449-3.287l.4.8A7.853,7.853,0,0,0,28.357,89.329Zm6.815,9.18a4.781,4.781,0,0,1-2.551-8.825L34.2,92.85a1.305,1.305,0,1,0,.966-.43c-.042,0-.083,0-.124.006l-1.585-3.165a4.782,4.782,0,1,1,1.709,9.248Z" transform="translate(-10.335 0)" fill="#fff"/>
    <path id="Контур_646" data-name="Контур 646" d="M315.695,132.62a.472.472,0,0,0,.425.266H318.7a.472.472,0,0,0,.472-.472v-3.559a.472.472,0,0,0-.472-.472H314.4a.472.472,0,0,0-.425.677Z" transform="translate(-292.782 -45.484)" fill="#fff"/>
    <path id="Контур_647" data-name="Контур 647" d="M196.657,278.224a.612.612,0,1,0,.612.612A.612.612,0,0,0,196.657,278.224Z" transform="translate(-182.84 -185.23)" fill="#fff"/>
    <path id="Контур_648" data-name="Контур 648" d="M.876,160.346a6.551,6.551,0,0,1,5.6-3.178,6.453,6.453,0,0,1,2.8.63.472.472,0,0,0,.406-.851,7.388,7.388,0,0,0-1.532-.534l.243-.847h.589a.472.472,0,0,0,0-.943H1.947a.472.472,0,0,0,0,.943h.632l.672,1.39c-.175.084-.347.174-.515.271a7.5,7.5,0,0,0-2.669,2.635.472.472,0,1,0,.81.484Zm2.751-4.78H7.406l-.2.7c-.243-.024-.487-.036-.735-.036a7.473,7.473,0,0,0-2.344.378Z" transform="translate(0 -69.955)" fill="#fff"/>
  </g>
</svg>
