<svg xmlns="http://www.w3.org/2000/svg" width="30.227" height="30.227" viewBox="0 0 30.227 30.227">
  <g id="swimming-pool" transform="translate(-1 -1)">
    <path id="Контур_633" data-name="Контур 633" d="M26.839,22.9H25.376V19.975A.976.976,0,0,0,24.4,19h-.975a.976.976,0,0,0-.975.975v.975H19.526v-.975A.976.976,0,0,0,18.551,19h-.975a.976.976,0,0,0-.975.975V22.9H5.388A4.393,4.393,0,0,0,1,27.288v6.825A4.392,4.392,0,0,0,5.388,38.5h8.338a.97.97,0,0,1,.689.285l.379.379a4.363,4.363,0,0,0,3.1,1.286h8.94a4.393,4.393,0,0,0,4.388-4.388V27.288A4.393,4.393,0,0,0,26.839,22.9ZM1.975,31.188H2.95v.975H1.975Zm11.7-6.338v-.975h.975v.975Zm-.975,0h-.975v-.975H12.7Zm-1.95,0H9.775v-.975h.975Zm-1.95,0H7.825v-.975H8.8Zm-1.95,0H5.875v-.975H6.85ZM4.9,24.9a2.406,2.406,0,0,0-.715.281l-.636-.763a3.379,3.379,0,0,1,1.351-.5ZM2.95,28.263H1.975v-.975H2.95Zm0,.975v.975H1.975v-.975Zm.207,3.9a2.442,2.442,0,0,0,.295.489l-.64.767a3.408,3.408,0,0,1-.693-1.257Zm1.028,1.133a2.392,2.392,0,0,0,.715.281v.985a3.384,3.384,0,0,1-1.351-.5Zm1.69.33H6.85v.975H5.875Zm1.95,0H8.8v.975H7.825Zm1.95,0h.975v.976H9.775Zm1.95,0H12.7v.976h-.975Zm1.95,0h.251a2.417,2.417,0,0,1,1.117.283l-.4.933a1.931,1.931,0,0,0-.919-.24h-.05Zm2.163.9.333.333a2.446,2.446,0,0,0,.428.336v1.1a3.413,3.413,0,0,1-1.118-.745l-.058-.058Zm1.737,1.016a2.5,2.5,0,0,0,.32.031h.655v.975H17.9c-.108,0-.215-.006-.322-.016Zm1.95.031H20.5v.975h-.975Zm1.95,0h.975v.975h-.975Zm1.95,0H24.4v.975h-.975Zm1.95,0h.975v.975h-.975Zm1.95-.049a2.424,2.424,0,0,0,.715-.281l.636.763a3.384,3.384,0,0,1-1.351.5Zm0-12.587a3.393,3.393,0,0,1,1.351.5l-.636.763a2.406,2.406,0,0,0-.715-.281Zm2.088,12.431-.64-.767a2.428,2.428,0,0,0,.295-.489h1.038A3.407,3.407,0,0,1,29.414,36.345Zm-.138-2.232v-.975h.975v.975Zm.975-1.95h-.975v-.975h.975Zm0-1.95h-.975v-.975h.975Zm0-1.95h-.975v-.975h.975Zm-.144-1.95H29.07a2.442,2.442,0,0,0-.295-.489l.64-.767A3.407,3.407,0,0,1,30.108,26.313Zm-3.756-2.438v.975h-.975v-.975Zm-2.925-3.9H24.4V26.8h-.976Zm-.975,4.875H19.526v-.975h2.925Zm0-2.925V22.9H19.526v-.975Zm-4.875-1.95h.975V26.8h-.976Zm.975,7.8a.976.976,0,0,0,.975-.975v-.975h2.925V26.8a.976.976,0,0,0,.975.975H24.4a.976.976,0,0,0,.975-.975v-.975h1.463A1.464,1.464,0,0,1,28.3,27.288v6.825a1.464,1.464,0,0,1-1.463,1.463H17.9a1.473,1.473,0,0,1-1.035-.429l-.522-.522a3.391,3.391,0,0,0-2.413-1H5.388a1.464,1.464,0,0,1-1.463-1.463V27.288a1.464,1.464,0,0,1,1.463-1.463H16.6V26.8a.976.976,0,0,0,.975.975ZM16.6,24.85h-.975v-.975H16.6Zm-13.789.206.64.767a2.419,2.419,0,0,0-.295.489H2.119a3.408,3.408,0,0,1,.693-1.257Zm24.027,14.42H17.9a3.4,3.4,0,0,1-2.415-1L15.1,38.1a1.937,1.937,0,0,0-1.379-.571H5.388a3.418,3.418,0,0,1-3.272-2.449,4.373,4.373,0,0,0,3.272,1.474h8.338a.97.97,0,0,1,.689.285l.379.379A4.363,4.363,0,0,0,17.9,38.5h8.94a4.372,4.372,0,0,0,3.272-1.475,3.417,3.417,0,0,1-3.272,2.45Z" transform="translate(0 -9.225)" fill="#fff"/>
    <path id="Контур_634" data-name="Контур 634" d="M9,37h2.925v.975H9Z" transform="translate(-4.1 -18.449)" fill="#fff"/>
    <path id="Контур_635" data-name="Контур 635" d="M19,43h3.9v.975H19Z" transform="translate(-9.225 -21.524)" fill="#fff"/>
    <path id="Контур_636" data-name="Контур 636" d="M41,48h3.9v.975H41Z" transform="translate(-20.499 -24.086)" fill="#fff"/>
    <path id="Контур_637" data-name="Контур 637" d="M43,40h4.875v.975H43Z" transform="translate(-21.524 -19.987)" fill="#fff"/>
    <path id="Контур_638" data-name="Контур 638" d="M7.875,12.7H8.85V7.825H10.8v3.9a.976.976,0,0,0,.975.975h3.9a.976.976,0,0,0,.975-.975V5.875a.976.976,0,0,0-.975-.975H13.134A5.367,5.367,0,0,0,8.85,2V1H7.875V2A5.368,5.368,0,0,0,3,7.338v.488H7.875Zm.488-9.6A4.407,4.407,0,0,1,9.825,6.363V6.85H6.9V6.363A4.408,4.408,0,0,1,8.363,3.1Zm3.413,8.625V9.775h3.9v1.95Zm3.9-5.85V8.8h-3.9V7.825h1.95V7.338a5.346,5.346,0,0,0-.208-1.463Zm-2.952.975H10.8V6.363A5.386,5.386,0,0,0,9.742,3.177,4.4,4.4,0,0,1,12.724,6.85ZM6.989,3.175A5.379,5.379,0,0,0,5.925,6.363V6.85H4A4.4,4.4,0,0,1,6.989,3.175Z" transform="translate(-1.025)" fill="#fff"/>
  </g>
</svg>
