<svg xmlns="http://www.w3.org/2000/svg" width="30.274" height="25.228" viewBox="0 0 30.274 25.228">
  <g id="Сгруппировать_2387" data-name="Сгруппировать 2387" transform="translate(-995 -216)">
    <g id="Taxi-Car-Cab-Vehicle-Transport" transform="translate(993 209)">
      <path id="Контур_639" data-name="Контур 639" d="M10.018,35a2.018,2.018,0,1,0,2.018,2.018A2.018,2.018,0,0,0,10.018,35Zm0,3.027a1.009,1.009,0,1,1,1.009-1.009A1.009,1.009,0,0,1,10.018,38.027Z" transform="translate(-2.973 -13.872)" fill="#fff"/>
      <path id="Контур_640" data-name="Контур 640" d="M50.018,35a2.018,2.018,0,1,0,2.018,2.018A2.018,2.018,0,0,0,50.018,35Zm0,3.027a1.009,1.009,0,1,1,1.009-1.009A1.009,1.009,0,0,1,50.018,38.027Z" transform="translate(-22.79 -13.872)" fill="#fff"/>
      <path id="Контур_641" data-name="Контур 641" d="M23,40h9.082v1.009H23Z" transform="translate(-10.404 -16.349)" fill="#fff"/>
      <path id="Контур_642" data-name="Контур 642" d="M23,36h9.082v1.009H23Z" transform="translate(-10.404 -14.368)" fill="#fff"/>
      <path id="Контур_643" data-name="Контур 643" d="M29,21h3.027v1.009H29Z" transform="translate(-13.377 -6.936)" fill="#fff"/>
      <path id="Контур_644" data-name="Контур 644" d="M32.274,18.6V17.6a1.518,1.518,0,0,0-1.514-1.514h-2l-1.044-3.663L27.4,11.173a1.514,1.514,0,0,0-1.468-1.145H21.678V8.009A1.012,1.012,0,0,0,20.669,7H13.6A1.012,1.012,0,0,0,12.6,8.009v2.018H8.337a1.514,1.514,0,0,0-1.468,1.145l-.308,1.241L5.512,16.082h-2A1.518,1.518,0,0,0,2,17.6V18.6a1.51,1.51,0,0,0,.711,1.277A2.511,2.511,0,0,0,2,21.632v6.055a1.507,1.507,0,0,0,.5,1.12v1.907a1.518,1.518,0,0,0,1.514,1.514H8.055a1.518,1.518,0,0,0,1.514-1.514V29.2H24.705v1.514a1.518,1.518,0,0,0,1.514,1.514h4.037a1.518,1.518,0,0,0,1.514-1.514V28.807a1.507,1.507,0,0,0,.5-1.12V21.632a2.511,2.511,0,0,0-.711-1.751A1.51,1.51,0,0,0,32.274,18.6ZM13.6,8.009h7.064v2.018H13.6ZM7.848,11.42a.5.5,0,0,1,.489-.383h17.6a.5.5,0,0,1,.489.383l.156.626H7.691Zm-.424,1.635H26.85l1.726,6.055H14.064a3.024,3.024,0,0,0-5.964,0H5.7ZM13.03,19.11h-3.9a2.01,2.01,0,0,1,3.9,0ZM3.009,17.6a.5.5,0,0,1,.5-.5h1.71L4.649,19.11H3.514a.5.5,0,0,1-.5-.5Zm5.55,13.119a.5.5,0,0,1-.5.5H4.018a.5.5,0,0,1-.5-.5V29.2H8.559Zm22.2,0a.5.5,0,0,1-.5.5H26.219a.5.5,0,0,1-.5-.5V29.2H30.76Zm.5-3.027a.5.5,0,0,1-.5.5H3.514a.5.5,0,0,1-.5-.5v-.5H31.265Zm0-1.514H3.009V21.632a1.518,1.518,0,0,1,1.514-1.514H29.751a1.518,1.518,0,0,1,1.514,1.514Zm0-7.568a.5.5,0,0,1-.5.5H29.625l-.575-2.018h1.71a.5.5,0,0,1,.5.5Z" fill="#fff"/>
    </g>
  </g>
</svg>
