<svg xmlns="http://www.w3.org/2000/svg" width="29.739" height="24.601" viewBox="0 0 29.739 24.601">
  <g id="Сгруппировать_2388" data-name="Сгруппировать 2388" transform="translate(-995 -217.399)">
    <g id="cooker" transform="translate(995 177.399)">
      <path id="Контур_650" data-name="Контур 650" d="M29.257,160.957h-.032V144.482a.482.482,0,1,0-.963,0v.032H1.477v-.032a.482.482,0,1,0-.963,0v16.475H.482a.482.482,0,0,0,0,.963H1.509a.482.482,0,0,0,0-.963H1.477v-8.8H28.262v8.8H28.23a.482.482,0,0,0,0,.963h1.028a.482.482,0,0,0,0-.963Zm-1-15.48v3.147H1.477v-3.147ZM1.477,151.194v-1.606H28.262v1.606Z" transform="translate(0 -97.32)" fill="#fff"/>
      <path id="Контур_651" data-name="Контур 651" d="M40.482,184.963h3.6a.482.482,0,0,0,0-.963h-3.6a.482.482,0,1,0,0,.963Z" transform="translate(-37.431 -134.751)" fill="#fff"/>
      <path id="Контур_652" data-name="Контур 652" d="M144.482,184.963h3.6a.482.482,0,1,0,0-.963h-3.6a.482.482,0,1,0,0,.963Z" transform="translate(-134.751 -134.751)" fill="#fff"/>
      <path id="Контур_653" data-name="Контур 653" d="M248.482,184.963h3.6a.482.482,0,1,0,0-.963h-3.6a.482.482,0,1,0,0,.963Z" transform="translate(-232.071 -134.751)" fill="#fff"/>
      <path id="Контур_654" data-name="Контур 654" d="M352.482,184.963h3.6a.482.482,0,0,0,0-.963h-3.6a.482.482,0,1,0,0,.963Z" transform="translate(-329.391 -134.751)" fill="#fff"/>
      <path id="Контур_655" data-name="Контур 655" d="M144,45.62a.482.482,0,0,0,.963,0,1.369,1.369,0,0,1,.408-.984,2.339,2.339,0,0,0,0-3.171,1.369,1.369,0,0,1-.408-.984.482.482,0,0,0-.963,0,2.3,2.3,0,0,0,.619,1.586,1.389,1.389,0,0,1,0,1.967A2.3,2.3,0,0,0,144,45.62Z" transform="translate(-134.751)" fill="#fff"/>
      <path id="Контур_656" data-name="Контур 656" d="M176.482,68.545a.482.482,0,0,0,.482-.482,1.369,1.369,0,0,1,.408-.984,2.3,2.3,0,0,0,.619-1.586,2.139,2.139,0,0,0-.405-1.3.482.482,0,1,0-.79.552,1.189,1.189,0,0,1,.231.753,1.369,1.369,0,0,1-.408.984A2.3,2.3,0,0,0,176,68.063.482.482,0,0,0,176.482,68.545Z" transform="translate(-164.695 -22.443)" fill="#fff"/>
      <path id="Контур_657" data-name="Контур 657" d="M112.482,68.545a.482.482,0,0,0,.482-.482,1.369,1.369,0,0,1,.408-.984,2.3,2.3,0,0,0,.619-1.586,2.139,2.139,0,0,0-.405-1.3.482.482,0,0,0-.79.552,1.189,1.189,0,0,1,.231.753,1.369,1.369,0,0,1-.408.984A2.3,2.3,0,0,0,112,68.063.482.482,0,0,0,112.482,68.545Z" transform="translate(-104.806 -22.443)" fill="#fff"/>
      <path id="Контур_658" data-name="Контур 658" d="M288,45.62a.482.482,0,1,0,.963,0,1.369,1.369,0,0,1,.408-.984,2.339,2.339,0,0,0,0-3.171,1.369,1.369,0,0,1-.408-.984.482.482,0,1,0-.963,0,2.3,2.3,0,0,0,.619,1.586,1.389,1.389,0,0,1,0,1.967A2.3,2.3,0,0,0,288,45.62Z" transform="translate(-269.501)" fill="#fff"/>
      <path id="Контур_659" data-name="Контур 659" d="M320.482,68.545a.482.482,0,0,0,.482-.482,1.369,1.369,0,0,1,.408-.984,2.3,2.3,0,0,0,.619-1.586,2.139,2.139,0,0,0-.405-1.3.482.482,0,0,0-.79.552,1.189,1.189,0,0,1,.231.753,1.369,1.369,0,0,1-.408.984A2.3,2.3,0,0,0,320,68.063.482.482,0,0,0,320.482,68.545Z" transform="translate(-299.446 -22.443)" fill="#fff"/>
      <path id="Контур_660" data-name="Контур 660" d="M256.482,68.545a.482.482,0,0,0,.482-.482,1.369,1.369,0,0,1,.408-.984,2.3,2.3,0,0,0,.619-1.586,2.139,2.139,0,0,0-.405-1.3.482.482,0,0,0-.79.552,1.189,1.189,0,0,1,.231.753,1.369,1.369,0,0,1-.408.984A2.3,2.3,0,0,0,256,68.063.482.482,0,0,0,256.482,68.545Z" transform="translate(-239.557 -22.443)" fill="#fff"/>
    </g>
  </g>
</svg>
