<svg xmlns="http://www.w3.org/2000/svg" width="27.177" height="30.215" viewBox="0 0 27.177 30.215">
  <g id="Сгруппировать_2389" data-name="Сгруппировать 2389" transform="translate(-996 -214)">
    <g id="fishing" transform="translate(989.563 214)">
      <path id="Контур_668" data-name="Контур 668" d="M31.141,25.853a7.879,7.879,0,0,0,2.472-5.129,5.055,5.055,0,0,0-.037-.605,8.592,8.592,0,0,0-2.707-4.787V13.987a2.816,2.816,0,0,0-2.813-2.814H25.714a1.987,1.987,0,1,1,0-3.974H28.39a3.128,3.128,0,1,0,0-6.256H25.2A1.359,1.359,0,0,0,23.905,0h-.512A16.083,16.083,0,0,0,7.336,15.654H6.85a.413.413,0,0,0-.413.413v11.9a2.246,2.246,0,1,0,4.493,0V21.537a2.613,2.613,0,1,0,0-3.8V16.067a.413.413,0,0,0-.413-.413h-.465A13.366,13.366,0,0,1,23.393,2.715h.512A1.359,1.359,0,0,0,25.2,1.77H28.39a2.3,2.3,0,1,1,0,4.6H25.714a2.813,2.813,0,1,0,0,5.626h2.342a1.989,1.989,0,0,1,1.987,1.987v1.346a8.6,8.6,0,0,0-2.707,4.787,5.072,5.072,0,0,0-.037.605,7.876,7.876,0,0,0,2.472,5.129c-.59.383-1.469,1.105-1.469,2.014a4.134,4.134,0,0,0,.691,2.174.421.421,0,0,0,.354.174.413.413,0,0,0,.339-.2l.77-1.322.77,1.322a.413.413,0,0,0,.339.2h.019a.413.413,0,0,0,.337-.174,4.133,4.133,0,0,0,.691-2.174c0-.909-.879-1.631-1.468-2.013ZM10.1,25.869H7.263V24.757H10.1Zm-1.42,3.52a1.422,1.422,0,0,1-1.42-1.42V26.7H10.1v1.273A1.422,1.422,0,0,1,8.683,29.389Zm4.033-11.541a1.787,1.787,0,1,1-1.787,1.787,1.787,1.787,0,0,1,1.787-1.787ZM10.1,23.93H7.263V16.48H10.1Zm13.8-22.042h-.512A14.2,14.2,0,0,0,9.22,15.654H8.158A15.259,15.259,0,0,1,23.393.826h.512a.531.531,0,0,1,0,1.062Zm6.551,14.194A8.013,8.013,0,0,1,32.7,19.877a8.277,8.277,0,0,1-4.491,0A8.017,8.017,0,0,1,30.456,16.083Zm-2.331,4.636a9.365,9.365,0,0,0,4.663,0v.006c0,2.131-1.668,3.988-2.332,4.643-.664-.653-2.331-2.506-2.331-4.643Zm3.438,8.228-.749-1.287a.413.413,0,0,0-.714,0l-.749,1.287a2.965,2.965,0,0,1-.222-1.079c0-.575.85-1.187,1.328-1.464.479.278,1.329.89,1.329,1.464a2.972,2.972,0,0,1-.222,1.079Z" fill="#fff"/>
      <path id="Контур_669" data-name="Контур 669" d="M105.936,78.115h.431a.413.413,0,1,0,0-.826h-.431a.413.413,0,1,0,0,.826Z" transform="translate(-75.696 -59.044)" fill="#fff"/>
    </g>
  </g>
</svg>
