<svg xmlns="http://www.w3.org/2000/svg" width="27.097" height="30.35" viewBox="0 0 27.097 30.35">
  <g id="Сгруппировать_2392" data-name="Сгруппировать 2392" transform="translate(-996 -213.65)">
    <g id="mop" transform="translate(968.567 213.65)">
      <g id="Сгруппировать_2372" data-name="Сгруппировать 2372" transform="translate(27.433)">
        <g id="Сгруппировать_2371" data-name="Сгруппировать 2371">
          <path id="Контур_661" data-name="Контур 661" d="M53.789,15.68h-.411a2.011,2.011,0,0,0-1.562-1.687,2.508,2.508,0,0,0-.574-.9,2.481,2.481,0,0,0-1.769-.736,2.543,2.543,0,0,0-.279.016,2.5,2.5,0,0,0-4.611-.274,1.983,1.983,0,0,0-3.771.844,2,2,0,0,0-1.486,1.486H35.114V10.67a.445.445,0,1,0-.889,0V23.23h-.241V4.971h.241V8.654a.445.445,0,1,0,.889,0V.741A.742.742,0,0,0,34.373,0h-.538a.742.742,0,0,0-.741.741V14.434h-.317a.742.742,0,0,0-.741.741v2.377a.742.742,0,0,0,.741.741h.317V23.23h-.075a.742.742,0,0,0-.741.741v1.52H30.7a.742.742,0,0,0-.741.741v.829H28.729a1.3,1.3,0,0,0-.745,2.355l-.174.174a.445.445,0,0,0,.629.629l.566-.566h.261a.444.444,0,0,0,.68.566l.566-.566h.261a.444.444,0,0,0,.68.566l.566-.566h.261a.444.444,0,0,0,.68.566l.566-.566h.229v.252a.445.445,0,1,0,.889,0v-.252h.229l.566.566a.444.444,0,0,0,.68-.566h.261l.566.566a.444.444,0,0,0,.68-.566h.261l.566.566a.444.444,0,0,0,.68-.566H39.4l.566.566a.445.445,0,1,0,.629-.629l-.259-.259a1.3,1.3,0,0,0,.293-.37h5.453a.445.445,0,1,0,0-.889H40.745a1.3,1.3,0,0,0-1.264-1.012H38.255v-.829a.742.742,0,0,0-.741-.741H35.931v-1.52a.742.742,0,0,0-.741-.741h-.075V18.293h17.21l-1.135,6.153-5.542-2.952A2.37,2.37,0,1,0,44.5,23.621l6.23,3.319-.169.915a.3.3,0,0,1-.263.219H48.451a.445.445,0,0,0,0,.889H50.3a1.186,1.186,0,0,0,1.137-.947l.157-.849a1.208,1.208,0,0,0,.446-2.269l-.025-.013,1.216-6.592h.561a.742.742,0,0,0,.741-.741v-1.13A.742.742,0,0,0,53.789,15.68ZM33.984.889h.241V4.082h-.241Zm-.816,23.23h1.874v1.372H33.168Zm-.242-8.8h.169v.834h-.169Zm0,2.08v-.357h.169V17.4Zm4.439,8.977v.681h-.533a.445.445,0,0,0,0,.889h2.648a.407.407,0,1,1,0,.813H28.729a.407.407,0,1,1,0-.813h5.792a.445.445,0,0,0,0-.889H30.844V26.38Zm5.918-3.311a1.477,1.477,0,1,1,1.325-2.13l-.488-.26a1.209,1.209,0,1,0-1.137,2.133l.463.246A1.479,1.479,0,0,1,43.284,23.069Zm8.467,3.045a.319.319,0,0,1-.283.169.315.315,0,0,1-.149-.038L43.4,22.028a.319.319,0,1,1,.3-.564l7.917,4.218A.32.32,0,0,1,51.751,26.114ZM49.473,13.252a1.6,1.6,0,0,1,1.139.474,1.618,1.618,0,0,1,.429.77.445.445,0,0,0,.408.342,1.122,1.122,0,0,1,1.024.842H50.654a1.621,1.621,0,0,0-1.549-1.159h-.272a1.774,1.774,0,0,0-.474-.82A1.6,1.6,0,0,1,49.473,13.252Zm-2.642-1.663a1.619,1.619,0,0,1,1.51,1.045,2.507,2.507,0,0,0-.637.464c-.049.049-.094.1-.137.151a1.752,1.752,0,0,0-1.461.271,1.978,1.978,0,0,0-.846-.686A1.621,1.621,0,0,1,46.831,11.589Zm-5.7,2.206c.009,0,.089-.007.121-.008l.046,0a1.087,1.087,0,0,1,.688.28.445.445,0,1,0,.6-.66,1.976,1.976,0,0,0-.881-.46,1.1,1.1,0,0,1,2.19.025c0,.037,0,.073-.006.112a.444.444,0,0,0,.487.486,1.087,1.087,0,0,1,1.128.7,1.769,1.769,0,0,0-.143.7.445.445,0,0,0,.889,0,.882.882,0,0,1,.133-.465c0-.008.038-.058.051-.075a.873.873,0,0,1,1.567.54.445.445,0,0,0,.445.445h.66a.723.723,0,0,1,.562.27H43.5v-.505a.742.742,0,0,0-.741-.741H40.263A1.1,1.1,0,0,1,41.133,13.795Zm-6.018,1.528h7.494v.834H35.115ZM53.641,17.4H35.115v-.357h7.642a.742.742,0,0,0,.691-.477H53.641Z" transform="translate(-27.433)" fill="#fff"/>
        </g>
      </g>
      <g id="Сгруппировать_2374" data-name="Сгруппировать 2374" transform="translate(43.799 2.685)">
        <g id="Сгруппировать_2373" data-name="Сгруппировать 2373">
          <path id="Контур_662" data-name="Контур 662" d="M306.46,45.291a2.973,2.973,0,1,0,2.933,2.972A2.956,2.956,0,0,0,306.46,45.291Zm0,5.056a2.084,2.084,0,1,1,2.044-2.083A2.066,2.066,0,0,1,306.46,50.347Z" transform="translate(-303.528 -45.291)" fill="#fff"/>
        </g>
      </g>
      <g id="Сгруппировать_2376" data-name="Сгруппировать 2376" transform="translate(49.357 7.906)">
        <g id="Сгруппировать_2375" data-name="Сгруппировать 2375">
          <path id="Контур_663" data-name="Контур 663" d="M399.051,133.369a1.782,1.782,0,1,0,1.761,1.782A1.774,1.774,0,0,0,399.051,133.369Zm0,2.675a.893.893,0,1,1,.872-.893A.884.884,0,0,1,399.051,136.044Z" transform="translate(-397.29 -133.369)" fill="#fff"/>
        </g>
      </g>
    </g>
  </g>
</svg>
