<svg xmlns="http://www.w3.org/2000/svg" width="28.455" height="28.455" viewBox="0 0 28.455 28.455">
  <g id="Сгруппировать_2393" data-name="Сгруппировать 2393" transform="translate(-995.582 -215.545)">
    <g id="map" transform="translate(995.582 215.545)">
      <path id="Контур_670" data-name="Контур 670" d="M26.16,0h-.918a.459.459,0,0,0-.459.459V3.672H2.295A2.3,2.3,0,0,0,0,5.966V26.16a2.3,2.3,0,0,0,2.295,2.295h.918A.459.459,0,0,0,3.672,28V24.783H26.16a2.3,2.3,0,0,0,2.295-2.295V2.295A2.3,2.3,0,0,0,26.16,0ZM2.754,27.537H2.295A1.379,1.379,0,0,1,.918,26.16V7.8a2.286,2.286,0,0,0,1.377.46h.459ZM2.295,7.343a1.377,1.377,0,0,1,0-2.754H13.769v.728l-.783.783a.458.458,0,0,0-.134.324V7.612l-.649.649h-1l-.783-.783a.457.457,0,0,0-.324-.134H8.72a.457.457,0,0,0-.324.134L7.019,8.855a.458.458,0,0,0,0,.649l1.242,1.242v1L7.153,12.851h-1L4.914,11.608a.457.457,0,0,0-.324-.134H3.672V7.8a.459.459,0,0,0-.459-.459ZM5.642,18.683l.783.783v1L5.317,21.571H3.672V16.063H4.858l.649.649v1.646a.458.458,0,0,0,.134.324ZM26.16,23.866H3.672V22.489H5.507a.457.457,0,0,0,.324-.134l1.377-1.377a.458.458,0,0,0,.134-.324V19.276a.458.458,0,0,0-.134-.324l-.783-.783V16.522a.458.458,0,0,0-.134-.324l-.918-.918a.457.457,0,0,0-.324-.134H3.672V12.392H4.4l1.242,1.242a.457.457,0,0,0,.324.134H7.343a.457.457,0,0,0,.324-.134l1.377-1.377a.458.458,0,0,0,.134-.324V10.556a.458.458,0,0,0-.134-.324L7.992,9.179l.918-.918h1l.783.783a.457.457,0,0,0,.324.134h1.377a.457.457,0,0,0,.324-.134l.918-.918a.458.458,0,0,0,.134-.324V6.615l.783-.783a.458.458,0,0,0,.134-.324V4.59h10.1V20.653a.459.459,0,0,0,.459.459h.918a1.377,1.377,0,1,1,0,2.754Zm1.377-3.212a2.286,2.286,0,0,0-1.377-.46H25.7V.918h.459a1.379,1.379,0,0,1,1.377,1.377Zm0,0" fill="#fff"/>
      <path id="Контур_671" data-name="Контур 671" d="M138.754,272A2.756,2.756,0,0,0,136,274.754a3.3,3.3,0,0,0,.619,1.931l1.761,2.466a.458.458,0,0,0,.746,0l1.761-2.466a3.3,3.3,0,0,0,.619-1.931A2.756,2.756,0,0,0,138.754,272Zm1.388,4.152-1.388,1.943-1.388-1.943a2.4,2.4,0,0,1-.448-1.4,1.836,1.836,0,0,1,3.672,0A2.393,2.393,0,0,1,140.142,276.152Zm0,0" transform="translate(-128.198 -256.396)" fill="#fff"/>
      <path id="Контур_672" data-name="Контур 672" d="M176,304h.918v.918H176Zm0,0" transform="translate(-165.903 -286.56)" fill="#fff"/>
      <path id="Контур_673" data-name="Контур 673" d="M248,384h.918v.918H248Zm0,0" transform="translate(-233.772 -361.97)" fill="#fff"/>
      <path id="Контур_674" data-name="Контур 674" d="M296.93,248.036l.16.9a1.413,1.413,0,0,1,.245-.022h.59V248h-.591A2.28,2.28,0,0,0,296.93,248.036Zm0,0" transform="translate(-279.895 -233.773)" fill="#fff"/>
      <path id="Контур_675" data-name="Контур 675" d="M330.289,248h.918v.918h-.918Zm0,0" transform="translate(-311.341 -233.772)" fill="#fff"/>
      <path id="Контур_676" data-name="Контур 676" d="M347.993,320.644l.787-.473a2.56,2.56,0,0,0-.768-.8l-.509.764A1.636,1.636,0,0,1,347.993,320.644Zm0,0" transform="translate(-327.568 -301.045)" fill="#fff"/>
      <path id="Контур_677" data-name="Контур 677" d="M216,384h.918v.918H216Zm0,0" transform="translate(-203.608 -361.97)" fill="#fff"/>
      <path id="Контур_678" data-name="Контур 678" d="M321.145,312v.918h.623a1.582,1.582,0,0,1,.229.017l.129-.909a2.476,2.476,0,0,0-.358-.026Zm0,0" transform="translate(-302.721 -294.101)" fill="#fff"/>
      <path id="Контур_679" data-name="Контур 679" d="M358.417,351.9a1.49,1.49,0,0,1,.007.153,1.585,1.585,0,0,1-.1.549l.862.314a2.494,2.494,0,0,0,.151-.863c0-.081,0-.162-.011-.24Zm0,0" transform="translate(-337.771 -331.633)" fill="#fff"/>
      <path id="Контур_680" data-name="Контур 680" d="M341.168,376.335l.3.867a2.538,2.538,0,0,0,.945-.587l-.643-.654A1.635,1.635,0,0,1,341.168,376.335Zm0,0" transform="translate(-321.595 -354.393)" fill="#fff"/>
      <path id="Контур_681" data-name="Контур 681" d="M363.076,247.941h-.787v.918h.787c.055,0,.11,0,.164-.006l-.067-.915c-.032,0-.065,0-.1,0Zm0,0" transform="translate(-341.505 -233.714)" fill="#fff"/>
      <path id="Контур_682" data-name="Контур 682" d="M400,208h.918v.918H400Zm0,0" transform="translate(-377.052 -196.067)" fill="#fff"/>
      <path id="Контур_683" data-name="Контур 683" d="M312,384h.918v.918H312Zm0,0" transform="translate(-294.101 -361.97)" fill="#fff"/>
      <path id="Контур_684" data-name="Контур 684" d="M388.969,235.987l.5.772a2.321,2.321,0,0,0,.773-.83l-.805-.441A1.386,1.386,0,0,1,388.969,235.987Zm0,0" transform="translate(-366.654 -221.978)" fill="#fff"/>
      <path id="Контур_685" data-name="Контур 685" d="M280,384h.918v.918H280Zm0,0" transform="translate(-263.937 -361.97)" fill="#fff"/>
      <path id="Контур_686" data-name="Контур 686" d="M265.143,290.559l-.913.1a2.305,2.305,0,0,0,.4,1.064l.754-.524A1.369,1.369,0,0,1,265.143,290.559Zm0,0" transform="translate(-249.072 -273.89)" fill="#fff"/>
      <path id="Контур_687" data-name="Контур 687" d="M286.5,309.473l-.411.821a2.279,2.279,0,0,0,1.027.242h.066v-.918h-.066A1.362,1.362,0,0,1,286.5,309.473Zm0,0" transform="translate(-269.677 -291.719)" fill="#fff"/>
      <path id="Контур_688" data-name="Контур 688" d="M267.039,257.764l.848.352a1.377,1.377,0,0,1,.409-.545l-.575-.715A2.3,2.3,0,0,0,267.039,257.764Zm0,0" transform="translate(-251.719 -242.12)" fill="#fff"/>
      <path id="Контур_689" data-name="Контур 689" d="M313.377,100.508V103.8h.918v-3.294a2.258,2.258,0,0,0,1.377-2.214,1.882,1.882,0,1,0-3.672,0A2.259,2.259,0,0,0,313.377,100.508Zm.459-3.59c.5,0,.918.631.918,1.377a1.605,1.605,0,0,1-.459,1.179v-.72h-.918v.72a1.6,1.6,0,0,1-.459-1.179C312.918,97.549,313.338,96.918,313.836,96.918Zm0,0" transform="translate(-294.101 -90.493)" fill="#fff"/>
      <path id="Контур_690" data-name="Контур 690" d="M242.295,141.507v-1.9a1.836,1.836,0,1,0-.918,0v1.9Zm-1.377-3.672a.918.918,0,1,1,1.377.79v-.79h-.918v.79A.915.915,0,0,1,240.918,137.836Zm0,0" transform="translate(-226.231 -128.198)" fill="#fff"/>
    </g>
  </g>
</svg>
