<svg xmlns="http://www.w3.org/2000/svg" width="29.452" height="29.452" viewBox="0 0 29.452 29.452">
  <g id="Сгруппировать_2395" data-name="Сгруппировать 2395" transform="translate(-995 -214.55)">
    <g id="Out_line" data-name="Out line" transform="translate(979.002 198.55)">
      <path id="Контур_649" data-name="Контур 649" d="M45.307,31.361l-.957-.957a5.872,5.872,0,0,0-2.891-1.586,7.459,7.459,0,0,0-.445-.905,3.439,3.439,0,0,0-.729-1.773,3.43,3.43,0,0,0-4.705-4.378A5.9,5.9,0,0,0,34.3,17.72l-1.229-1.536a.491.491,0,0,0-.767,0L31.076,17.72a5.912,5.912,0,0,0-.959,1.723,7.541,7.541,0,0,0-1.124.039,5.875,5.875,0,0,0-2.46-.536H25.325a.491.491,0,0,0-.491.491V20.79q0,.271.025.538a7.472,7.472,0,0,0-2.291,3.87l.028.006a3.429,3.429,0,0,0-.523,3.2l-1.589,8.219a.49.49,0,0,0-.545.367l-.426,1.7L18.3,39.1a.491.491,0,0,0-.192.813l.173.173-.835.417a2.614,2.614,0,1,0,3.508,3.508l.417-.835.173.173a.491.491,0,0,0,.813-.192l.406-1.217,1.7-.425a.49.49,0,0,0,.367-.545l9.8-1.9a7.384,7.384,0,0,0,2.843-.584l0-.008a5.887,5.887,0,0,0,2.355.789l1.954.217a.491.491,0,0,0,.542-.542l-.217-1.954a5.868,5.868,0,0,0-.838-2.437l.062-.01a5.86,5.86,0,0,0,3.122-1.632l.854-.854A.491.491,0,0,0,45.307,31.361ZM33.19,24.386a3.434,3.434,0,0,0,1.422,5.694,2.952,2.952,0,0,1-.942.155c-.073,0-.146,0-.219-.009a3.421,3.421,0,0,0-1.379-.461,2.953,2.953,0,0,1-.345-.261,3.416,3.416,0,0,0-.4-4A2.963,2.963,0,0,1,33.19,24.386Zm.971,11.74a1.473,1.473,0,0,1-.491-.084,1.471,1.471,0,0,0,.487-2.488,1.956,1.956,0,0,0-.058-.371h.062a1.473,1.473,0,0,1,0,2.945Zm-9.817-6.872c0-.057,0-.113.006-.169a1.962,1.962,0,0,0,1.171.637,2.453,2.453,0,0,0,2.837,1.426,2.453,2.453,0,0,1-4.013-1.894Zm3.436-1.963a1.473,1.473,0,1,1-.491,2.861,1.471,1.471,0,0,0,.487-2.488,1.957,1.957,0,0,0-.058-.371Zm-.982.982a.491.491,0,1,1-.491.491A.491.491,0,0,1,26.8,28.272Zm-1.467.362A.981.981,0,1,1,26.668,27.3a1.475,1.475,0,0,0-1.337,1.337Zm4.934,4.688a3.412,3.412,0,0,0-.493,1.37,2.454,2.454,0,1,1,4.186-2.484,2.437,2.437,0,0,0-.388.063,1.962,1.962,0,0,0-3.305,1.052Zm2.913,1.822a.491.491,0,1,1,.491-.491A.491.491,0,0,1,33.179,35.144ZM32.2,32.69a.982.982,0,0,1,.853.5,1.475,1.475,0,0,0-1.337,1.337A.981.981,0,0,1,32.2,32.69Zm3.436-3.436a2.453,2.453,0,0,1-1.894-4.013,2.453,2.453,0,0,0,1.426,2.836,1.962,1.962,0,0,0,.637,1.171C35.746,29.251,35.689,29.253,35.633,29.253Zm.491-1.963a.491.491,0,1,1,.491-.491A.491.491,0,0,1,36.124,27.29Zm.982,1.473a.982.982,0,0,1-.853-.5,1.475,1.475,0,0,0,1.337-1.337.981.981,0,0,1-.485,1.834Zm.489-2.883a1.956,1.956,0,0,0-.371-.058,1.471,1.471,0,0,0-2.488.487,1.473,1.473,0,1,1,2.861-.491c0,.021,0,.041,0,.062Zm-6.38,1.9a2.468,2.468,0,0,1-1.021,1.99,3.448,3.448,0,0,0,.039-.517c0-.088,0-.177-.011-.265s.011-.15.011-.226a2.458,2.458,0,0,0-1.571-2.289,3.4,3.4,0,0,0-.476-1.079,2.453,2.453,0,0,1,3.029,2.386Zm-3.638-1.464a2.438,2.438,0,0,0-.388.063,1.962,1.962,0,0,0-3.305,1.052,3.412,3.412,0,0,0-.493,1.37,2.454,2.454,0,1,1,4.186-2.484ZM26.8,32.69a3.414,3.414,0,0,0,1.588-.39,3.435,3.435,0,0,0,.361,2.627l-2.25-2.25C26.6,32.684,26.7,32.69,26.8,32.69Zm2.528,4.2a7.412,7.412,0,0,0,2.617,1.7l-7.834,1.515-1.771-1.771,4.214-4.214Zm3.853.7a2.457,2.457,0,0,1-2.454-2.454c0-.057,0-.113.006-.169a1.962,1.962,0,0,0,1.171.637,2.453,2.453,0,0,0,2.837,1.426A2.443,2.443,0,0,1,33.179,37.6ZM36.6,34.879c.007-.075.011-.15.011-.226a2.458,2.458,0,0,0-1.571-2.289,3.4,3.4,0,0,0-.476-1.079,2.453,2.453,0,0,1,2.008,4.376,3.447,3.447,0,0,0,.039-.517c0-.088,0-.177-.011-.265Zm.993-4.153a2.453,2.453,0,0,1-1.512-.521,3.412,3.412,0,0,0,1.37-.492,1.962,1.962,0,0,0,1.052-3.305,2.437,2.437,0,0,0,.063-.388,2.454,2.454,0,0,1-.973,4.707Zm1.963-5.89a2.466,2.466,0,0,1-.069.574,3.4,3.4,0,0,0-1.079-.476,2.458,2.458,0,0,0-2.289-1.571c-.076,0-.152,0-.226.011s-.176-.011-.264-.011a3.449,3.449,0,0,0-.517.039,2.453,2.453,0,0,1,4.444,1.434Zm-7.717-6.5.845-1.056.845,1.056a4.917,4.917,0,0,1,.908,4.338,3.427,3.427,0,0,0-.446.706c-.108-.009-.217-.014-.326-.014a3.891,3.891,0,0,0-.491.031V19.927H32.2v3.725a3.96,3.96,0,0,0-.679.356A4.892,4.892,0,0,1,31.843,18.333Zm-6.027,1.594h.717a4.884,4.884,0,0,1,3.254,1.234,5.864,5.864,0,0,0,.443,2.485l-2.2-2.2-.694.694,2.322,2.322a3.424,3.424,0,0,0-2.083.091,4.936,4.936,0,0,1-1.761-3.766Zm-.731,2.555a5.95,5.95,0,0,0,.627,1.4,3.393,3.393,0,0,0-1.74.255,6.519,6.519,0,0,1,1.113-1.65Zm-2.1,7.325a7.393,7.393,0,0,0,1.571,2.318l1.3,1.3L21.643,37.64l-.3-.3,1.487-7.688Q22.906,29.733,22.985,29.806Zm-5.1,11.571,1.128-.564.017.017-1.813,2.849a1.632,1.632,0,0,1,.668-2.3Zm2.191,2.191a1.632,1.632,0,0,1-2.112.766l1.777-2.793.9.9Zm2.187-2.519a.491.491,0,0,0-.347.321l-.24.719-2.313-2.313.719-.24a.491.491,0,0,0,.321-.347l.281-1.122,2.7,2.7Zm12.705-2.971a3.463,3.463,0,0,0,.981-.9,5.894,5.894,0,0,0,.587.611A6.4,6.4,0,0,1,34.966,38.078Zm4.97.214a4.907,4.907,0,0,1-3.126-1.617,3.464,3.464,0,0,0,1.072-.937l1.177,1.177.694-.694-1.382-1.382a3.414,3.414,0,0,0,.136-.479,5.847,5.847,0,0,0,1.625.274,4.888,4.888,0,0,1,1,2.464l.149,1.345Zm3.823-6.077a4.937,4.937,0,0,1-5.2,1.124,3.409,3.409,0,0,0-.316-1.14h3.277v-.982H39.364a3.458,3.458,0,0,0,1.36-1.526A4.892,4.892,0,0,1,43.655,31.1l.61.61Z" transform="translate(0)" fill="#fff"/>
    </g>
  </g>
</svg>
