<svg xmlns="http://www.w3.org/2000/svg" width="26.071" height="23.222" viewBox="0 0 26.071 23.222">
  <g id="Сгруппировать_2397" data-name="Сгруппировать 2397" transform="translate(-996.679 -217.421)">
    <path id="Icon_awesome-house-damage" data-name="Icon awesome-house-damage" d="M12.5,4.99,3.015,13.355a2.008,2.008,0,0,1-.237.145v8.027a.694.694,0,0,0,.694.694H21.528a.694.694,0,0,0,.694-.694V13.5a2.025,2.025,0,0,1-.228-.139ZM24.77,10.255l-2.547-2.25V2.083a.694.694,0,0,0-.694-.694H18.75a.694.694,0,0,0-.694.694V4.327L13.661.447a1.73,1.73,0,0,0-2.32,0L.231,10.255a.7.7,0,0,0-.053.981l.929,1.034a.7.7,0,0,0,.981.053l9.953-8.779a.7.7,0,0,1,.919,0l9.953,8.779a.7.7,0,0,0,.981-.053l.929-1.034A.694.694,0,0,0,24.77,10.255Z" transform="translate(997.25 217.921)" fill="none" stroke="#fff" stroke-width="1"/>
  </g>
</svg>
