<svg  width="25.851" height="29.681" viewBox="0 0 25.851 29.681">
  <g id="child" transform="translate(-5 -1)">
    <ellipse id="Эллипс_110" data-name="Эллипс 110" cx="0.5" rx="0.5" transform="translate(15 12)" fill="#fff"/>
    <ellipse id="Эллипс_111" data-name="Эллипс 111" cx="0.5" rx="0.5" transform="translate(20 12)" fill="#fff"/>
    <path id="Контур_664" data-name="Контур 664" d="M29.915,32.957A.958.958,0,0,1,28.957,32H28a1.915,1.915,0,0,0,3.83,0h-.957A.958.958,0,0,1,29.915,32.957Z" transform="translate(-11.989 -16.16)" fill="#fff"/>
    <path id="Контур_665" data-name="Контур 665" d="M37.1,9.907l.927-.239A6.223,6.223,0,0,0,32,5v.957A5.266,5.266,0,0,1,37.1,9.907Z" transform="translate(-14.075 -2.085)" fill="#fff"/>
    <path id="Контур_666" data-name="Контур 666" d="M42.98,17.435v.479h.957v-.479c0-.174-.007-.348-.021-.518L42.962,17C42.974,17.142,42.98,17.287,42.98,17.435Z" transform="translate(-19.789 -8.297)" fill="#fff"/>
    <path id="Контур_667" data-name="Контур 667" d="M26.915,23.543a11.271,11.271,0,0,0,1.4-1.141l.378-.378-.417-.334a5.871,5.871,0,0,1-2.214-4.606V9.138a8.138,8.138,0,0,0-16.276,0v7.945A5.87,5.87,0,0,1,7.573,21.69l-.417.334.378.378a11.287,11.287,0,0,0,1.4,1.141A7.575,7.575,0,0,0,5,30.2v.479H30.851V30.2a7.574,7.574,0,0,0-3.936-6.659Zm-16.17-6.459V9.138a7.181,7.181,0,0,1,14.362,0v7.945a6.82,6.82,0,0,0,2.152,4.988,10.926,10.926,0,0,1-1.365.993L21.212,21.15a1.43,1.43,0,0,1-.893-1.329v-.344a8.863,8.863,0,0,0,3.83-7.3v-1.6H23.67a13.351,13.351,0,0,1-6.868-1.9L15.111,7.657l-.209.07a4.677,4.677,0,0,0-3.2,4.452,8.864,8.864,0,0,0,3.83,7.3v.344a1.43,1.43,0,0,1-.892,1.329L9.959,23.065a10.937,10.937,0,0,1-1.366-.993,6.82,6.82,0,0,0,2.152-4.988Zm1.915,5.911v3.856H11.7V23.386Zm5.266-3.352a7.916,7.916,0,0,1-5.266-7.477A3.717,3.717,0,0,1,15,8.708l1.307.785a14.313,14.313,0,0,0,6.882,2.031v.654A7.911,7.911,0,0,1,17.925,19.642Zm-.151.96.151.051.151-.05a8.947,8.947,0,0,0,1.3-.551,2.38,2.38,0,0,0,.325.994l-1.777,1.777-1.778-1.778a2.38,2.38,0,0,0,.325-.994A8.9,8.9,0,0,0,17.774,20.6Zm-4.157,6.248V22.909l.466.816a2.4,2.4,0,0,0,3.787.507l.055-.055.055.055a2.4,2.4,0,0,0,3.787-.507l.466-.816v3.942Zm7.32-3.6a1.447,1.447,0,0,1-2.279.3L18.6,23.5l1.748-1.748a2.406,2.406,0,0,0,.5.284l.633.259Zm-5.436-1.5L17.249,23.5l-.055.055a1.447,1.447,0,0,1-2.279-.3l-.545-.955L15,22.036a2.406,2.406,0,0,0,.5-.284Zm-4.545,6.056H24.895a.478.478,0,0,1,.454.327l.529,1.587H9.972l.529-1.587a.479.479,0,0,1,.454-.327Zm13.193-.957h-.957V22.995l.957.392ZM10.091,24.046l.653-.268v3.09a1.433,1.433,0,0,0-1.151.965l-.63,1.89H5.974A6.625,6.625,0,0,1,10.091,24.046Zm16.8,5.678-.63-1.89a1.434,1.434,0,0,0-1.151-.965v-3.09l.653.268a6.625,6.625,0,0,1,4.117,5.678Z" fill="#fff"/>
  </g>
</svg>
